<?xml version="1.0" encoding="UTF-8"?>
<svg xmlns="http://www.w3.org/2000/svg" xmlns:xlink="http://www.w3.org/1999/xlink" viewBox="0 0 32 32" width="32px" height="32px">
<g id="surface32916848">
<path style=" stroke:none;fill-rule:nonzero;fill:rgb(100%,100%,100%);fill-opacity:1;" d="M 5.515625 2 C 3.585938 2 2 3.585938 2 5.515625 L 2 24.492188 C 2 26.414062 3.585938 28 5.515625 28 L 24.492188 28 C 26.414062 28 28 26.414062 28 24.492188 L 28 5.515625 C 28 3.585938 26.414062 2 24.492188 2 Z M 5.515625 4 L 24.492188 4 C 25.335938 4 26 4.664062 26 5.515625 L 26 24.492188 C 26 25.335938 25.335938 26 24.492188 26 L 5.515625 26 C 4.664062 26 4 25.335938 4 24.492188 L 4 5.515625 C 4 4.664062 4.664062 4 5.515625 4 Z M 10 11 C 7.789062 11 6 12.789062 6 15 C 6 17.210938 7.789062 19 10 19 C 12.210938 19 14 17.210938 14 15 C 14 12.789062 12.210938 11 10 11 Z M 20 11 C 17.804688 11 16 12.804688 16 15 C 16 17.195312 17.804688 19 20 19 C 22.195312 19 24 17.195312 24 15 C 24 12.804688 22.195312 11 20 11 Z M 20 13 C 21.117188 13 22 13.882812 22 15 C 22 16.117188 21.117188 17 20 17 C 18.882812 17 18 16.117188 18 15 C 18 13.882812 18.882812 13 20 13 Z M 20 13 "/>
</g>
</svg>
