<?xml version="1.0" encoding="UTF-8"?>
<svg xmlns="http://www.w3.org/2000/svg" xmlns:xlink="http://www.w3.org/1999/xlink" viewBox="0 0 64 64" width="64px" height="64px">
<g id="surface32866820">
<path style=" stroke:none;fill-rule:nonzero;fill:rgb(100%,100%,100%);fill-opacity:1;" d="M 41.21875 8.03125 C 40.5625 7.96875 39.90625 8.03125 39.28125 8.21875 C 38.015625 8.578125 36.890625 9.390625 36.15625 10.5625 L 29.328125 21.4375 L 27.8125 18.15625 L 27.78125 18.171875 C 27.421875 17.046875 26.65625 16.09375 25.5625 15.546875 L 11.59375 8.5625 C 8.171875 6.84375 4 9.421875 4 13.25 L 4 43.53125 C 4 45.796875 5.296875 47.875 7.3125 48.890625 L 20.40625 55.4375 C 23.828125 57.140625 28 54.578125 28 50.75 L 28 43.234375 L 52.421875 55.4375 C 55.828125 57.140625 60 54.5625 60 50.75 L 60 19.78125 C 60 17.9375 58.953125 16.234375 57.3125 15.40625 L 57.296875 15.40625 L 43.15625 8.546875 C 42.53125 8.25 41.875 8.078125 41.21875 8.03125 Z M 9.140625 11.96875 C 9.34375 11.96875 9.578125 12.015625 9.796875 12.125 L 23.78125 19.125 C 23.921875 19.203125 24 19.328125 24 19.484375 L 24 50.75 C 24 51.765625 23.109375 52.3125 22.21875 51.875 L 9.09375 45.3125 C 8.421875 44.96875 8 44.296875 8 43.53125 L 8 13.25 C 8 12.484375 8.515625 11.984375 9.140625 11.96875 Z M 40.375 12.0625 C 40.703125 11.953125 41.0625 11.984375 41.40625 12.15625 L 55.515625 19 C 55.734375 19.109375 55.859375 19.296875 55.9375 19.53125 L 40.140625 44.796875 L 31.34375 25.765625 L 39.5625 12.6875 C 39.75 12.359375 40.046875 12.15625 40.375 12.0625 Z M 56 26.96875 L 56 50.75 C 56 51.765625 55.109375 52.3125 54.203125 51.875 L 43.71875 46.625 Z M 28 28.078125 L 34.4375 41.984375 L 28 38.765625 Z M 28 28.078125 "/>
</g>
</svg>
