<?xml version="1.0" encoding="UTF-8"?>
<svg xmlns="http://www.w3.org/2000/svg" xmlns:xlink="http://www.w3.org/1999/xlink" viewBox="0 0 16 16" width="16px" height="16px">
<g id="surface32841553">
<path style=" stroke:none;fill-rule:nonzero;fill:rgb(100%,100%,100%);fill-opacity:1;" d="M 2.757812 1 C 1.792969 1 1 1.792969 1 2.757812 L 1 12.246094 C 1 13.207031 1.792969 14 2.757812 14 L 12.246094 14 C 13.207031 14 14 13.207031 14 12.246094 L 14 2.757812 C 14 1.792969 13.207031 1 12.246094 1 Z M 2.757812 2 L 12.246094 2 C 12.667969 2 13 2.332031 13 2.757812 L 13 12.246094 C 13 12.667969 12.667969 13 12.246094 13 L 2.757812 13 C 2.332031 13 2 12.667969 2 12.246094 L 2 2.757812 C 2 2.332031 2.332031 2 2.757812 2 Z M 5 5.5 C 3.894531 5.5 3 6.394531 3 7.5 C 3 8.605469 3.894531 9.5 5 9.5 C 6.105469 9.5 7 8.605469 7 7.5 C 7 6.394531 6.105469 5.5 5 5.5 Z M 10 5.5 C 8.902344 5.5 8 6.402344 8 7.5 C 8 8.597656 8.902344 9.5 10 9.5 C 11.097656 9.5 12 8.597656 12 7.5 C 12 6.402344 11.097656 5.5 10 5.5 Z M 10 6.5 C 10.558594 6.5 11 6.941406 11 7.5 C 11 8.058594 10.558594 8.5 10 8.5 C 9.441406 8.5 9 8.058594 9 7.5 C 9 6.941406 9.441406 6.5 10 6.5 Z M 10 6.5 "/>
</g>
</svg>
